<svg version="1.1" xmlns="http://www.w3.org/2000/svg" xmlns:xlink="http://www.w3.org/1999/xlink" width="594.0504" height="281.9129" viewBox="0,0,594.0504,281.9129"><g transform="translate(57.87014,-120.60659)"><g data-paper-data="{&quot;isPaintingLayer&quot;:true}" fill-rule="nonzero" stroke="none" stroke-width="0" stroke-linecap="butt" stroke-linejoin="miter" stroke-miterlimit="10" stroke-dasharray="" stroke-dashoffset="0" style="mix-blend-mode: normal"><path d="M-21.41553,399.54502l-25.45727,-60.44316l517.94752,-177.52116l25.45727,60.44316z" fill="#e29136"/><path d="M-51.00072,340.85975l-6.86942,-16.31006l521.13816,-178.61472l6.86943,16.31006z" fill="#9de336"/><path d="M-14.07738,402.5195l-25.45727,-60.44317l517.94752,-177.52116l25.45727,60.44317z" fill="#e29136"/><path d="M-43.66256,343.83423l-6.86942,-16.31007l521.13816,-178.61472l6.86942,16.31007z" fill="#9de336"/><path d="M4,382.1087v-35h523v35z" fill="#e29136"/><path d="M163,379.1087v-50h365v50z" fill="#e29136"/><path d="M137,358.1087v-27h136v27z" fill="#e29136"/><path d="M195,369.1087v-74h320v74z" fill="#e29136"/><path d="M276,313.1087v-49h260v49z" fill="#e29136"/><path d="M337,276.1087v-42h184v42z" fill="#e29136"/><path d="M448,231.1087v-4h66v4z" fill="#e29136"/><path d="M429,260.1087v-36h81v36z" fill="#e29136"/><path d="M477,237.1087v-70h39v70z" fill="#e29136"/><path d="M467.94757,168.61081l-8.12782,-19.36333l68.23269,-28.64088l8.12782,19.36333z" fill="#9de336"/><path d="M478,170.1087v-5h32v5z" fill="#e29136"/></g></g></svg>