<svg version="1.1" xmlns="http://www.w3.org/2000/svg" xmlns:xlink="http://www.w3.org/1999/xlink" width="612" height="453" viewBox="0,0,612,453"><defs><linearGradient x1="82.51127" y1="26.67152" x2="82.51127" y2="155.53159" gradientUnits="userSpaceOnUse" id="color-1"><stop offset="0" stop-color="#ff8800"/><stop offset="1" stop-color="#dbdbdb"/></linearGradient></defs><g transform="translate(24,8.1875)"><g data-paper-data="{&quot;isPaintingLayer&quot;:true}" fill-rule="nonzero" stroke-linecap="butt" stroke-linejoin="miter" stroke-miterlimit="10" stroke-dasharray="" stroke-dashoffset="0" style="mix-blend-mode: normal"><path d="M-24,444.8125v-453h612v453z" fill="#36e3c9" stroke="none" stroke-width="0"/><path d="M54.47729,72.70108c0.6567,-0.43449 2.83565,-5.80307 3.33772,-6.42854c0.54621,-0.68047 0.56464,-2.51571 1.12977,-3.33592c2.53038,-3.67255 6.26616,-4.95122 7.62252,-7.80729c0.69568,-1.4649 5.28199,-4.92588 7.08848,-6.04874c4.52018,-2.8096 3.71467,-22.40908 8.85551,-22.40908c22.23982,0 40.26875,28.8463 40.26875,64.43004c0,35.58373 -18.02891,64.43004 -40.26875,64.43004c-22.23984,0 -40.26878,-28.8463 -40.26878,-64.43004c0,-14.91501 4.79045,-13.47496 12.23479,-18.40047z" data-paper-data="{&quot;index&quot;:null}" fill="#ffffff" stroke="url(#color-1)" stroke-width="2"/></g></g></svg>