<svg version="1.1" xmlns="http://www.w3.org/2000/svg" xmlns:xlink="http://www.w3.org/1999/xlink" width="39.53753" height="62.06006" viewBox="0,0,39.53753,62.06006"><g transform="translate(-225.2425,-136.67151)"><g data-paper-data="{&quot;isPaintingLayer&quot;:true}" fill-rule="nonzero" stroke-linecap="butt" stroke-linejoin="miter" stroke-miterlimit="10" stroke-dasharray="" stroke-dashoffset="0" style="mix-blend-mode: normal"><path d="" fill="#ffffff" stroke="#000000" stroke-width="2"/><path d="" fill="#ffffff" stroke="#000000" stroke-width="2"/><path d="M231.94499,159.12532c0.30608,-0.20251 1.32166,-2.70474 1.55567,-2.99626c0.25458,-0.31716 0.26317,-1.17254 0.52657,-1.55483c1.17938,-1.71173 2.92058,-2.3077 3.55276,-3.63888c0.32425,-0.68277 2.46187,-2.29589 3.30385,-2.81924c2.1068,-1.30952 1.73136,-10.44459 4.12744,-10.44459c10.3657,0 18.76876,13.4449 18.76876,30.03003c0,16.58513 -8.40305,30.03003 -18.76876,30.03003c-10.36571,0 -18.76877,-13.4449 -18.76877,-30.03003c0,-6.9517 2.23277,-6.28051 5.70248,-8.57623z" data-paper-data="{&quot;index&quot;:null}" fill="#ffffff" stroke="#000000" stroke-width="2"/><path d="M253.71848,150.70155c2.30119,0 4.16667,3.50711 4.16667,7.83334c0,4.32623 -1.86548,7.83333 -4.16667,7.83333c-2.30118,0 -4.16666,-3.5071 -4.16666,-7.83333c0,-4.32624 1.86547,-7.83334 4.16666,-7.83334z" data-paper-data="{&quot;index&quot;:null}" fill="#000000" stroke="none" stroke-width="0"/><path d="M254.91848,152.25988c0.93888,0 1.7,1.83564 1.7,4.1c0,2.26437 -0.76112,4.1 -1.7,4.1c-0.93888,0 -1.7,-1.83564 -1.7,-4.1c0,-2.26437 0.76112,-4.1 1.7,-4.1z" data-paper-data="{&quot;index&quot;:null}" fill="#ffffff" stroke="none" stroke-width="0"/><path d="M252.41848,160.45988c0.66274,0 1.2,0.89543 1.2,2c0,1.10457 -0.53726,2 -1.2,2c-0.66274,0 -1.2,-0.89543 -1.2,-2c0,-1.10457 0.53726,-2 1.2,-2z" data-paper-data="{&quot;index&quot;:null}" fill="#ffffff" stroke="none" stroke-width="0"/><path d="M249.41848,146.45989v-3.6l2.95556,-1.33334l-0.11111,6.15555z" data-paper-data="{&quot;index&quot;:null}" fill="#ff48e7" stroke="#000000" stroke-width="0.5"/><path d="M247.28515,145.9932v-2.55555h2v2.55555z" data-paper-data="{&quot;index&quot;:null}" fill="#ff48e7" stroke="#000000" stroke-width="0.5"/><path d="M244.52959,147.79321l-0.11111,-6.15556l2.95556,1.33334v3.6z" data-paper-data="{&quot;index&quot;:null}" fill="#ff48e7" stroke="#000000" stroke-width="0.5"/><path d="M234.89626,168.59392c2.11709,0 3.83333,1.41776 3.83333,3.16666c0,1.7489 -1.71624,3.16667 -3.83333,3.16667c-2.11709,0 -3.83333,-1.41777 -3.83333,-3.16667c0,-1.74889 1.71624,-3.16666 3.83333,-3.16666z" data-paper-data="{&quot;index&quot;:null}" fill="#ff91f0" stroke="none" stroke-width="0"/><path d="M258.2296,168.59392c2.11709,0 3.83333,1.41776 3.83333,3.16666c0,1.7489 -1.71624,3.16667 -3.83333,3.16667c-2.11709,0 -3.83334,-1.41777 -3.83334,-3.16667c0,-1.74889 1.71625,-3.16666 3.83334,-3.16666z" data-paper-data="{&quot;index&quot;:null}" fill="#ff91f0" stroke="none" stroke-width="0"/></g></g></svg>